<svg width="16" height="28" viewBox="0 0 16 28" fill="none" xmlns="http://www.w3.org/2000/svg">
<path d="M0.5 1.66667C0.5 0.746192 1.24619 0 2.16667 0H13.8333C14.7538 0 15.5 0.746192 15.5 1.66667V3.33333H0.5V1.66667Z" fill="#00BC3B"/>
<path d="M0.5 3.33333H15.5V6.66667H0.5V3.33333Z" fill="white"/>
<path d="M0.5 6.66667H15.5V8.33333C15.5 9.25381 14.7538 10 13.8333 10H2.16667C1.24619 10 0.5 9.25381 0.5 8.33333V6.66667Z" fill="#F52207"/>
<path d="M1.54327 21.7868H0.50223V16.75H1.54327V21.7868Z" fill="white"/>
<path d="M3.2615 21.801C3.09256 21.801 2.94873 21.7396 2.83001 21.6168C2.71586 21.494 2.65879 21.3452 2.65879 21.1705C2.65879 21.0005 2.71586 20.8564 2.83001 20.7384C2.94873 20.6156 3.09256 20.5542 3.2615 20.5542C3.42588 20.5542 3.56514 20.6156 3.67929 20.7384C3.798 20.8564 3.85736 21.0005 3.85736 21.1705C3.85736 21.3452 3.798 21.494 3.67929 21.6168C3.56514 21.7396 3.42588 21.801 3.2615 21.801Z" fill="white"/>
<path d="M6.70272 19.9591H5.93564V21.7868H4.88775V16.75H6.75751C7.13192 16.75 7.45611 16.809 7.73007 16.9271C8.00402 17.0452 8.21178 17.2176 8.35332 17.4442C8.49943 17.6709 8.57248 17.9449 8.57248 18.266C8.57248 18.4974 8.53824 18.7029 8.46975 18.8823C8.40583 19.0618 8.30766 19.22 8.17525 19.357C8.0474 19.4892 7.88531 19.6002 7.68897 19.6899L8.74371 21.7372V21.7868H7.61363L6.70272 19.9591ZM5.93564 19.1232H6.77806C6.9333 19.1232 7.06572 19.0925 7.1753 19.0311C7.28945 18.9697 7.3762 18.8823 7.43556 18.769C7.49492 18.6509 7.5246 18.5139 7.5246 18.3581C7.5246 18.1172 7.45839 17.9307 7.32598 17.7984C7.19356 17.6615 7.00179 17.593 6.75067 17.593H5.93564V19.1232Z" fill="white"/>
<path d="M10.1706 21.801C10.0017 21.801 9.85788 21.7396 9.73916 21.6168C9.62501 21.494 9.56794 21.3452 9.56794 21.1705C9.56794 21.0005 9.62501 20.8564 9.73916 20.7384C9.85788 20.6156 10.0017 20.5542 10.1706 20.5542C10.335 20.5542 10.4743 20.6156 10.5884 20.7384C10.7071 20.8564 10.7665 21.0005 10.7665 21.1705C10.7665 21.3452 10.7071 21.494 10.5884 21.6168C10.4743 21.7396 10.335 21.801 10.1706 21.801Z" fill="white"/>
<path d="M1.54104 28H0.5V22.9632H1.54104V28Z" fill="white"/>
<path d="M4.25922 26.1723H3.49214V28H2.44424V22.9632H4.31401C4.68842 22.9632 5.0126 23.0222 5.28656 23.1403C5.56052 23.2584 5.76827 23.4307 5.90981 23.6574C6.05592 23.8841 6.12898 24.158 6.12898 24.4792C6.12898 24.7106 6.09473 24.916 6.02625 25.0955C5.96232 25.275 5.86416 25.4332 5.73174 25.5701C5.6039 25.7024 5.4418 25.8134 5.24546 25.9031L6.3002 27.9504V28H5.17013L4.25922 26.1723ZM3.49214 25.3364H4.33455C4.4898 25.3364 4.62221 25.3057 4.7318 25.2443C4.84594 25.1829 4.9327 25.0955 4.99206 24.9822C5.05141 24.8641 5.08109 24.7271 5.08109 24.5713C5.08109 24.3304 5.01488 24.1439 4.88247 24.0116C4.75006 23.8747 4.55829 23.8062 4.30716 23.8062H3.49214V25.3364Z" fill="white"/>
<path d="M8.30245 22.9632H9.29555L11.0968 28H9.97359L9.65854 26.987H7.95316L7.6381 28H6.51488L8.30245 22.9632ZM9.40513 26.144L8.80242 24.2242L8.19972 26.144H9.40513Z" fill="white"/>
<path d="M15.5 28H14.459L12.555 24.6705V28H11.5139V22.9632H12.555L14.459 26.2927V22.9632H15.5V28Z" fill="white"/>
</svg>
